<?xml version="1.0" encoding="UTF-8"?>
<svg id="Layer_1" data-name="Layer 1" xmlns="http://www.w3.org/2000/svg" viewBox="0 0 1230 381.65">
  <defs>
    <style>
      .cls-1 {
        fill: #fff;
      }
    </style>
  </defs>
  <rect class="cls-1" x="728.23" y="41.93" width="6.27" height="316.24"/>
  <g>
    <path class="cls-1" d="M212.65,105.7c27.14-36.52,21.64-71.6-21.86-105.7-46.64,36.56-48.7,74.13-19.02,110.17,4.39,5.13,19.02,19.04,19.02,19.04,0,0,16.27-.31,41,9.51,0,0-11.23-19.68-27.38-33.62-18.6-16.05-39.28-44.76-13.62-68.55,17.32,16.06,13.53,34.36,3.51,49.5,0,0,1.14,3.66,13.52,15.16,1.79,1.66,3.2,3.23,4.82,4.48"/>
    <path class="cls-1" d="M186.42,132.42s-12.32,13.1-19.21,35.01c-6.15,19.55-6.78,38.5-6.78,38.5-10.39-2.46-25.68-15.28-25.68-15.28,1.7-23.96,10.76-44.59,10.76-44.59,7.08-18.5,22.23-32.34,22.23-32.34l18.68,18.7Z"/>
    <path class="cls-1" d="M105.69,168.99c-36.52-27.13-71.6-21.65-105.69,21.86,36.55,46.63,74.12,48.7,110.17,19.02,5.13-4.39,19.03-19.02,19.03-19.02,0,0-.31-16.27,9.52-41.01,0,0-19.68,11.23-33.62,27.38-16.05,18.61-44.76,39.28-68.56,13.63,16.07-17.33,34.37-13.53,49.51-3.51,0,0,3.66-1.14,15.16-13.53,1.66-1.79,3.23-3.2,4.48-4.82"/>
    <path class="cls-1" d="M132.41,195.22s13.1,12.32,35.01,19.21c19.55,6.15,38.5,6.77,38.5,6.77-2.46,10.39-15.27,25.69-15.27,25.69-23.96-1.7-44.59-10.77-44.59-10.77-18.51-7.08-32.34-22.23-32.34-22.23l18.69-18.67Z"/>
    <path class="cls-1" d="M168.98,275.95c-27.13,36.51-21.64,71.6,21.86,105.69,46.63-36.56,48.7-74.13,19.03-110.17-4.39-5.13-19.03-19.04-19.03-19.04,0,0-16.26.31-41.01-9.51,0,0,11.24,19.68,27.39,33.62,18.6,16.05,39.28,44.76,13.62,68.56-17.33-16.06-13.53-34.37-3.51-49.51,0,0-1.15-3.66-13.53-15.16-1.78-1.66-3.19-3.23-4.82-4.48"/>
    <path class="cls-1" d="M195.21,249.23s12.32-13.1,19.21-35.01c6.15-19.55,6.78-38.5,6.78-38.5,10.38,2.46,25.69,15.27,25.69,15.27-1.7,23.96-10.76,44.6-10.76,44.6-7.08,18.51-22.23,32.35-22.23,32.35l-18.68-18.7Z"/>
    <path class="cls-1" d="M275.94,212.66c36.52,27.13,71.6,21.64,105.7-21.86-36.56-46.63-74.13-48.7-110.17-19.02-5.13,4.39-19.04,19.02-19.04,19.02,0,0,.31,16.26-9.51,41.01,0,0,19.68-11.23,33.62-27.39,16.05-18.6,44.76-39.28,68.56-13.62-16.07,17.33-34.37,13.53-49.51,3.51,0,0-3.66,1.15-15.16,13.53-1.66,1.78-3.23,3.2-4.48,4.82"/>
    <path class="cls-1" d="M249.22,186.43s-13.1-12.32-35.01-19.22c-19.55-6.15-38.5-6.77-38.5-6.77,2.45-10.39,15.27-25.69,15.27-25.69,23.96,1.7,44.6,10.77,44.6,10.77,18.5,7.08,32.34,22.23,32.34,22.23l-18.7,18.68Z"/>
    <path class="cls-1" d="M42.08,149.99c6.46-2.06,13.36-3.18,20.5-3.18,2.86,0,5.67.17,8.44.51,12.86-35.39,41.03-63.5,76.44-76.33-.32-2.65-.4-5.36-.4-8.1,0-7.29,1.13-14.31,3.27-20.88-52.5,14.24-93.89,55.53-108.25,107.97"/>
    <path class="cls-1" d="M149.98,339.56c-2.06-6.46-3.18-13.35-3.18-20.5,0-2.86.16-5.67.51-8.44-35.39-12.86-63.5-41.03-76.34-76.44-2.65.32-5.36.4-8.09.4-7.29,0-14.31-1.13-20.88-3.27,14.25,52.5,55.53,93.9,107.98,108.26"/>
    <path class="cls-1" d="M339.56,231.65c-6.46,2.06-13.36,3.18-20.5,3.18-2.86,0-5.67-.16-8.44-.51-12.87,35.4-41.04,63.51-76.44,76.34.32,2.65.39,5.36.39,8.09,0,7.29-1.13,14.31-3.26,20.88,52.5-14.24,93.88-55.53,108.25-107.98"/>
    <path class="cls-1" d="M231.65,42.09c2.06,6.46,3.18,13.35,3.18,20.5,0,2.86-.17,5.67-.51,8.44,35.39,12.86,63.5,41.02,76.34,76.43,2.65-.32,5.35-.39,8.09-.39,7.29,0,14.3,1.13,20.88,3.26-14.25-52.49-55.54-93.88-107.98-108.24"/>
    <path class="cls-1" d="M425.95,255.23v-43.67h2.23l64.33,68.78.91.78c.27-4.71.39-9.55.39-14.25v-41.84l-.52-10.47-.13-1.04c1.83.26,3.79.39,5.62.39,1.04,0,2.22-.13,3.27-.39-.13,1.04-.13,2.09-.27,3.14l-.65,12.81-1.18,30.99-.39,29.29.39,14.78h-1.96c-2.62-3.14-5.23-6.28-7.97-9.28l-21.31-23.67-36.48-38.83-.26,12.29c-.13,6.54,0,12.95,0,19.35v10.46l.39,15.43.66,12.56c-3.01-.52-6.01-.52-9.02,0,.52-5.75.92-11.51,1.05-17.26l.91-30.34Z"/>
    <path class="cls-1" d="M536.94,257.45l.4,28.37.52,14.12.26,2.88c-1.96-.13-4.05-.65-6.01-.65-2.36,0-4.58.52-6.93.65.13-.92.13-1.97.27-2.88l.52-10.33.52-30.59v-31.91l-.65-13.86c2.23.14,4.44.52,6.67.52,1.96,0,4.05-.26,6.01-.39-.13,1.17-.13,2.35-.26,3.53l-.52,11.9-.65,22.76,16.87.4,37.4-.4v-27.72l-.65-10.6c2.22.14,4.45.52,6.67.52,2.09,0,4.06-.26,6.15-.39-.26,1.17-.26,2.35-.4,3.53l-1.18,42.63.39,29.42.65,13.86c-1.96-.13-3.92-.65-5.88-.65-2.36,0-4.58.52-6.93.65.13-.92.13-1.97.27-2.88l.65-13.47.39-29.03h-54.53Z"/>
    <path class="cls-1" d="M624.79,285.57c5.1,8.37,10.98,13.33,21.18,13.33s18.17-8.5,18.17-18.83c0-8.76-5.88-13.2-13.21-16.47-6.14-2.88-12.82-4.97-18.43-8.76-5.89-3.92-9.29-10.86-9.29-17.92,0-16.86,13.34-25.1,29.03-25.1,6.28,0,13.86,1.96,18.7,6.28-1.57,3.4-2.49,7.06-3.53,10.72h-1.31c-2.75-7.05-8.5-11.77-16.21-11.77-9.03,0-16.48,6.41-16.48,15.7,0,4.96,1.83,9.02,5.62,12.16,2.09,1.83,2.62,1.96,5.1,3.13,1.57.79,3.27,1.57,4.96,2.23,1.96.78,3.93,1.56,5.88,2.48,1.96.91,4.19,1.7,6.02,2.74,2.87,1.57,6.14,3.14,8.24,5.62,3.27,4.05,5.36,8.5,5.36,13.86,0,18.7-14.52,29.55-32.3,29.55-6.41,0-16.87-2.48-21.31-7.32,1.31-3.79,1.96-7.71,2.49-11.64h1.31Z"/>
    <path class="cls-1" d="M440.85,357.44c-.91-.17-1.95-.29-2.92-.29s-2,.11-2.97.29c-3.26-12.58-7.15-25.01-10.98-37.48l-.4-1.66c1.55.12,3.09.29,4.64.29s3.15-.17,4.69-.29c2.29,9.61,4.92,19.11,7.55,28.61,3.26-9.55,6.98-18.94,9.89-28.61.97.17,1.95.29,2.92.29.92,0,1.89-.11,2.81-.29,2.58,9.67,6.3,18.99,9.1,28.61,3.03-9.44,6.06-18.94,8.47-28.61.86.12,1.71.29,2.57.29s1.77-.11,2.57-.29v.46c-4.69,12.76-9.15,25.63-13.1,38.67-.92-.17-1.94-.29-2.92-.29s-2,.11-2.98.29c-2.51-9.44-5.77-18.65-9.09-27.81-3.2,9.1-6.58,18.08-9.67,27.23l-.17.57Z"/>
    <path class="cls-1" d="M509.56,342.28h10.47c-1.6-4.46-3.32-8.92-5.09-13.32-1.83,4.23-3.61,8.46-5.2,12.81l-.17.52ZM498.8,356.98l4.23-9.78c4.23-9.61,8.29-19.34,11.9-29.23.75.12,1.43.28,2.18.28s1.43-.17,2.17-.28l.4.97c4.75,12.53,9.73,25,14.99,37.35l.29.63v.52c-1.61-.12-3.27-.29-4.86-.29s-3.2.11-4.81.29c-1.21-3.95-2.41-7.84-3.95-11.67-2.12-.06-4.18-.17-6.29-.17-2.35,0-4.63.06-6.98.11l-.29.8c-1.26,3.6-2.69,7.15-3.61,10.93-.86-.17-1.78-.29-2.69-.29-.86,0-1.83.11-2.69.29v-.46Z"/>
    <path class="cls-1" d="M558.75,318.31c1.55.11,3.09.29,4.63.29s3.15-.17,4.69-.29c-.11,3.43-.4,6.81-.45,10.24-.06,2.23-.06,4.46-.06,6.69v10.81c0,2.4.11,4.81.11,7.2l3.09-.11c3.38-.06,6.69-.34,10.01-.62-.17.8-.23,1.66-.23,2.46s.06,1.66.23,2.46l-9.66-.34c-2.64-.06-5.21.17-7.79.17-1.6,0-3.15.06-4.75.17.4-6.18.52-12.36.52-18.54,0-2.28.06-4.58.06-6.86,0-4.24-.23-8.41-.34-12.64l-.06-1.09Z"/>
    <path class="cls-1" d="M605.6,318.31c3.03.06,6.06.34,9.1.34,4.29,0,8.63-.23,12.92-.29-.29,1.38-.29,2.81-.11,4.24.06.22.06.45.11.68-4.35-.34-8.69-.8-13.05-.68-.05,2-.11,3.94-.11,5.95,0,2.12-.06,4.23-.06,6.35l12.98-.46c-.12.92-.28,1.78-.28,2.69,0,.74.16,1.43.28,2.17-3.37-.23-6.75-.4-10.18-.46-.91,0-1.89-.06-2.8-.06,0,2.41-.06,4.86-.06,7.27s.06,4.81.06,7.2c4.4,0,8.81-.29,13.21-.74-.29,1.37-.29,2.8-.11,4.23.06.23.06.46.11.69-3.43-.06-6.92-.34-10.35-.34-2.23,0-4.52.17-6.75.17-1.72,0-3.38.06-5.09.17.12-1.09.12-2.18.17-3.26.12-3.55.23-7.1.29-10.7,0-2.86.06-5.78.06-8.69v-6.69c0-2.97-.23-6.06-.34-9.04v-.75Z"/>
    <path class="cls-1" d="M670.47,326.04c-1.14-2.98-3.32-4.86-6.58-4.86-1.89,0-3.15.22-4.58,1.55-1.14,1.03-1.72,2.4-1.72,3.94,0,6.06,13.5,7.38,16.42,14.07.68,1.49.97,3.49.97,5.09,0,1.72-.63,3.89-1.37,5.37-1.31,2.75-3.38,4.3-6.06,5.55-2.57,1.2-4.92,1.49-7.72,1.49-3.15,0-6.52-.75-9.21-2.4.68-2.41,1.31-4.76,1.66-7.21h1.08c.86,3.89,3.94,6.12,7.9,6.12,3.54,0,6.69-1.89,6.69-5.78,0-1.95-.75-3.09-2.12-4.4-2-1.43-4.17-2.58-6.41-3.61-1.6-.75-3.09-1.89-4.58-2.8-2.8-1.72-3.94-5.44-3.94-8.58,0-3.94,1.31-6.57,4.34-9.04,2.8-2.23,5.32-2.8,8.87-2.8,3.03,0,5.89.62,8.53,2.28.17.17.34.23.51.4-.68,1.83-1.26,3.72-1.83,5.61h-.86Z"/>
    <path class="cls-1" d="M459.56,184.9l-1.26,4.86c-3.43,1.77-7.49,2.46-11.33,2.46-2.86,0-4.69-.29-7.49-.86-1.6-.34-4.86-1.89-6.29-2.81-1.49-1.03-3.03-2.63-4.12-4.06-2.52-3.38-3.61-7.09-3.61-11.33,0-6.52,1.6-11.84,6.58-16.25,4.4-3.83,10.47-5.26,16.19-5.26,3.77,0,8.35.97,11.67,2.74-.51,1.95-.85,3.89-1.31,5.83h-.8c-2.12-3.03-5.78-5.03-9.49-5.03-9.5,0-13.39,8.86-13.39,17.16,0,4.06.86,8.29,3.38,11.61,2.4,3.15,6.35,4.86,10.3,4.86,3.55,0,7.67-1.83,10.24-4.23l.74.29Z"/>
    <path class="cls-1" d="M481.87,152.64c1.72,0,3.43-.11,5.09-.35.8,1.66,1.6,3.38,2.4,5.04.86,1.83,1.72,3.61,2.58,5.38.8,1.66,1.66,3.32,2.46,4.98.29.62.63,1.43,1.14,1.88,0,.17.86-1.08.92-1.14.34-.57.68-1.2.97-1.77,1.2-2.23,2.29-4.52,3.38-6.75.75-1.55,1.43-3.15,2.12-4.69.39-.98.8-1.89,1.26-2.87.23.06.45.06.68.11,1.55.29,3.15.17,4.69-.11-4,7.5-8.29,14.42-11.9,21.74-.06,2.17-.12,4.41-.12,6.57,0,3.61.35,7.21.58,10.82-1.6-.11-3.26-.29-4.86-.29s-3.26.11-4.86.29c.4-4.35.63-8.7.63-13.05.05-1.08.05-2.12.05-3.2-4.29-7.38-8.06-15.11-12.36-22.88,1.72.11,3.44.29,5.15.29"/>
    <path class="cls-1" d="M531.69,152.35c.75.06,1.55.29,2.29.29.8,0,1.6-.17,2.34-.29,4.18,9.16,8.7,18.08,13.22,27.06l3.37-6.58c3.49-6.74,6.81-13.55,9.95-20.48.23.06.4.06.63.12,1.43.23,2.86.17,4.23-.12.98,8.93,2.06,17.85,3.15,26.77.4,3.32.92,6.64,1.37,9.95.11.69.4,1.6.4,2.41-1.55-.11-3.15-.29-4.69-.29s-3.09.17-4.63.29c-.4-8.81-1.55-17.56-2.4-26.38-4.35,8.76-8.64,17.51-12.7,26.38-.75-.11-1.43-.17-2.18,0l-4.4-9.16c-2.63-5.54-5.44-11.04-8.12-16.58-.4,3.38-.85,6.75-1.2,10.12-.17,2.18-.4,4.3-.57,6.46-.12,1.89-.29,3.72-.4,5.61-.06,1.2-.12,2.34-.23,3.55-.85-.17-1.77-.29-2.69-.29-.86,0-1.78.12-2.63.29,0-.57.29-1.71.4-2.12.63-2.86,1.03-5.78,1.55-8.7.62-3.71,1.08-7.44,1.6-11.16l2.34-17.16Z"/>
    <path class="cls-1" d="M601.13,162.36c0,1.49-.06,2.97-.06,4.46,0,1.37,0,2.74-.06,4.12,5.95.57,8.93-2.29,8.93-8.18,0-1.2-.06-1.66-.29-2.86-1.03-4.75-4.63-4.12-8.52-4.35v6.81ZM603.31,176.66c-.52-.97-1.09-2-1.66-2.92-.17-.23-.11-.29-.4-.34,0,0-.29,0-.29.34,0,3.37.11,6.81.11,10.18.06.51.06,1.03.06,1.54.06,2,.29,4.01.4,6.01-1.54-.11-3.09-.29-4.63-.29s-3.09.17-4.63.29l.06-1.09c.06-1.26.12-2.51.23-3.77.29-3.72.29-7.5.29-11.27,0-3.43-.06-6.92-.06-10.36,0-4.23-.17-8.41-.4-12.64l3.94.11c2.74.06,5.5-.17,8.24-.17s6.87-.11,9.21,1.21c3.32,1.88,5.04,4.46,5.04,8.35,0,5.61-3.61,9.15-8.92,10.3,3.15,5.49,6.69,10.75,10.12,16.08l2.06,3.26c-1.72-.11-3.49-.29-5.21-.29s-3.44.11-5.14.29l-6.64-11.73-1.77-3.09Z"/>
    <path class="cls-1" d="M675.89,160.7c-.06,1.83-.17,3.72-.17,5.61,0,2.11-.11,4.23-.17,6.28-.11,6.52-.06,12.48-6.01,16.59-3.09,2.24-7.04,3.03-10.82,3.03-6.91,0-14.41-2.18-16.53-9.61-.29-1.03-.4-2.06-.52-3.09-.17-1.26-.12-2.63-.12-3.94-.06-2.35-.11-4.69-.11-7.1s-.06-4.75-.06-7.15c0-2.18-.06-4.41-.06-6.58,0-.8-.11-1.6-.11-2.41,1.6.12,3.14.29,4.74.29s3.09-.12,4.63-.35c-.05.92-.17,1.89-.28,2.81-.29,4.52-.46,8.92-.46,13.38,0,3.15-.11,7.84.4,10.81.51,2.8.97,4.58,3.03,6.58,1.83,1.72,4,2.46,6.52,2.46,5.31,0,8.17-1.95,10.18-6.92,1.04-2.52,1.04-9.04,1.04-11.85,0-5.72-.06-11.49-.46-17.22.97.17,1.95.29,2.92.29s1.95-.12,2.86-.29c-.28,2.75-.34,5.55-.46,8.35"/>
    <path class="cls-1" d="M556.1,89.78l.4,28.38.52,14.12.27,2.87c-1.97-.13-4.06-.65-6.02-.65-2.35,0-4.58.52-6.93.65.14-.91.14-1.96.27-2.87l.52-10.33.52-30.61v-31.9l-.66-13.86c2.23.13,4.44.52,6.67.52,1.96,0,4.05-.26,6.01-.39-.13,1.17-.13,2.35-.26,3.53l-.52,11.89-.65,22.76-.14,5.88Z"/>
    <path class="cls-1" d="M519.41,128.84c1.57,5.31-26.95,7.24-37.45,7.24-34.18,0-61.2-17.52-61.2-47.07,0-27.72,27.02-47.07,61.2-47.07,12.18,0,24.85,2.23,35.69,6.41l-5.5,8.89c-7.51-3.4-18.51-5.88-30.18-5.88-26.85,0-45.86,16.74-45.86,37.65s19.01,37.66,45.86,37.66c8,0,16.84-1.57,23.18-3.79l1.79-1.53v-26.94l-.66-13.86c2.23.13,6.55.52,8.78.52,1.96,0,4.05-.26,6.01-.39-.13,1.17-.13,2.35-.26,3.53l-.52,11.9-.86,32.73Z"/>
    <path class="cls-1" d="M673.16,128.84c1.57,5.31-26.95,7.24-37.45,7.24-34.19,0-61.2-17.52-61.2-47.07,0-27.72,27.02-47.07,61.2-47.07,12.17,0,24.84,2.23,35.69,6.41l-5.51,8.89c-7.5-3.4-18.5-5.88-30.18-5.88-26.85,0-45.87,16.74-45.87,37.65s19.01,37.66,45.87,37.66c8,0,16.84-1.57,23.18-3.79l1.78-1.53v-26.94l-.65-13.86c2.23.13,6.55.52,8.78.52,1.96,0,4.05-.26,6.01-.39-.13,1.17-.13,2.35-.27,3.53l-.52,11.9-.86,32.73Z"/>
  </g>
  <g>
    <path class="cls-1" d="M783.71,103.6v-46.7h6.69v46.7h-6.69Z"/>
    <path class="cls-1" d="M826.02,102.19c-4.95,2.01-7.89,2.21-10.7,2.21-11.57,0-17.73-6.69-17.73-18.47,0-10.3,6.49-17.26,15.99-17.26s15.06,6.29,15.06,19.27h-24.35c.07,6.83,5.29,11.37,11.24,11.37,3.61,0,8.36-1.74,10.5-3.41v6.29ZM821.94,83.26c-.07-5.49-3.21-9.5-8.56-9.5-5.02,0-8.43,3.61-9.1,9.5h17.66Z"/>
    <path class="cls-1" d="M857.76,103c-2.14.94-4.42,1.41-7.89,1.41-10.37,0-17.4-8.16-17.4-17.86,0-10.44,6.96-17.86,17.4-17.86,2.48,0,5.82.6,7.63,1.34l-.53,5.22c-2.41-1-4.75-1.47-6.83-1.47-6.89,0-10.97,6.15-10.97,12.78,0,6.16,3.35,12.78,11.37,12.78,2.14,0,4.82-.67,6.76-1.94l.47,5.62Z"/>
    <path class="cls-1" d="M886.24,103.6v-17.93c0-7.16-1.6-11.91-7.43-11.91-8.63,0-10.17,8.76-10.17,13.85v15.99h-6.29v-50.18h6.29v20.94h.13c2.34-3.68,6.22-5.69,10.98-5.69,8.63,0,12.78,5.29,12.78,14.65v20.27h-6.29Z"/>
    <path class="cls-1" d="M897.49,112.83c1,.33,2.01.53,2.94.53,4.08,0,6.62-4.22,7.49-8.36,0-.67-.67-2.21-.94-2.94l-11.84-32.59h6.89l9.17,28.24h.13l9.37-28.24h6.36l-13.51,37.47c-2.07,5.69-4.88,11.51-12.18,11.51-1.94,0-3.14-.27-4.28-.47l.4-5.15Z"/>
    <path class="cls-1" d="M954.63,103.6v-4.82h-.14c-2.34,3.48-6.62,5.62-11.64,5.62-10.1,0-14.65-8.83-14.65-18.47s4.82-17.26,14.72-17.26c5.09,0,9.03,1.74,11.31,5.49h.13v-20.74h6.29v50.18h-6.02ZM954.36,86.6c0-6.02-3.01-12.85-10.17-12.85-6.29,0-9.3,5.62-9.3,12.31,0,7.49,3.61,13.25,9.43,13.25,6.96,0,10.04-6.83,10.04-12.71Z"/>
    <path class="cls-1" d="M1007.54,103.6v-4.42h-.14c-2.41,3.35-6.16,5.22-10.64,5.22-7.9,0-12.44-3.75-12.44-10.64s6.89-11.24,16.33-11.24c2.68,0,4.82.07,6.22.13,0-6.22-2.48-8.9-8.43-8.9-3.41,0-7.16,1.2-9.9,3.48l-.34-5.35c3.14-1.87,6.89-3.21,11.24-3.21,9.43,0,13.72,4.48,13.72,14.05v14.99c0,2.07.07,4.28.27,5.89h-5.89ZM1006.87,87.34s-2.81-.13-4.08-.13c-7.09,0-11.78,2.14-11.78,6.56,0,3.28,3.01,5.55,6.42,5.55,5.89,0,9.43-3.68,9.43-8.97v-3.01Z"/>
    <path class="cls-1" d="M1069.43,83.53h-9.83v-5.49h16.52v24.29c-4.21,1.47-9.17,2.07-14.18,2.07-15.19,0-24.69-9.77-24.69-24.35s10.17-23.95,24.76-23.95c4.68,0,8.36.4,13.65,2.34l-.53,6.76c-3.61-2.41-7.56-3.21-12.78-3.21-10.77,0-18,7.76-18,18.27s7.69,18.27,17.66,18.27c3.61,0,5.15-.27,7.43-.8v-14.18Z"/>
    <path class="cls-1" d="M1082.95,86.54c0-10.44,6.96-17.86,17.4-17.86s17.33,7.09,17.33,17.86c0,9.57-6.89,17.86-17.4,17.86s-17.33-7.96-17.33-17.86ZM1110.99,86.54c0-6.76-4.08-12.78-10.71-12.78s-10.64,6.22-10.64,12.78,3.61,12.78,10.7,12.78,10.64-6.16,10.64-12.78Z"/>
    <path class="cls-1" d="M1127.39,103.6v-29.04h-8.03v-5.08h8.03v-3.35c0-8.97,2.88-13.52,11.44-13.52,1.34,0,2.61.13,4.22.4l-.27,5.09c-.73-.27-2.01-.4-3.01-.4-4.55,0-6.09,2.34-6.09,7.56v4.22h9.03v5.08h-9.03v29.04h-6.29Z"/>
    <path class="cls-1" d="M1167.13,103.6v-4.42h-.13c-2.41,3.35-6.16,5.22-10.64,5.22-7.89,0-12.44-3.75-12.44-10.64s6.89-11.24,16.33-11.24c2.67,0,4.82.07,6.22.13,0-6.22-2.48-8.9-8.43-8.9-3.41,0-7.16,1.2-9.9,3.48l-.34-5.35c3.15-1.87,6.89-3.21,11.24-3.21,9.43,0,13.72,4.48,13.72,14.05v14.99c0,2.07.07,4.28.27,5.89h-5.89ZM1166.46,87.34s-2.81-.13-4.08-.13c-7.09,0-11.78,2.14-11.78,6.56,0,3.28,3.01,5.55,6.42,5.55,5.89,0,9.43-3.68,9.43-8.97v-3.01Z"/>
    <path class="cls-1" d="M1181.29,103.6v-50.18h6.29v50.18h-6.29Z"/>
    <path class="cls-1" d="M783.31,176.77v-46.7h13.78c14.12,0,24.89,8.77,24.89,23.02,0,15.26-9.17,23.69-24.82,23.69h-13.85ZM797.17,170.88c10.17,0,17.73-4.48,17.73-17.6,0-10.64-7.16-17.33-17.13-17.33h-7.76v34.93h7.16Z"/>
    <path class="cls-1" d="M829.12,135.02v-7.09h7.09v7.09h-7.09ZM829.52,176.77v-34.12h6.29v34.12h-6.29Z"/>
    <path class="cls-1" d="M868.58,171.48h-.13c-2.68,3.48-6.96,5.29-11.44,5.29-9.77,0-14.59-7.96-14.59-16.79,0-9.3,5.35-18.13,15.26-18.13,5.35,0,9.17,1.74,11.24,5.89h.13v-5.08h5.82v32.72c0,10.44-5.55,16.26-17.6,16.26-4.35,0-7.43-.74-12.24-2.34l.67-5.82c5.15,2.41,8.1,3.08,12.25,3.08,6.69,0,10.64-4.48,10.64-11.71v-3.35ZM868.58,160.04c0-7.09-3.35-13.11-9.97-13.11-6.16,0-9.5,6.49-9.5,12.71,0,6.69,3.81,12.04,9.5,12.04s9.97-4.82,9.97-11.64Z"/>
    <path class="cls-1" d="M883.19,135.02v-7.09h7.09v7.09h-7.09ZM883.59,176.77v-34.12h6.29v34.12h-6.29Z"/>
    <path class="cls-1" d="M923.04,176.77v-4.82h-.14c-2.34,3.48-6.62,5.62-11.64,5.62-10.1,0-14.65-8.83-14.65-18.47s4.82-17.26,14.72-17.26c5.09,0,9.03,1.74,11.31,5.49h.13v-20.74h6.29v50.18h-6.02ZM922.77,159.78c0-6.02-3.01-12.85-10.17-12.85-6.29,0-9.3,5.62-9.3,12.31,0,7.49,3.61,13.25,9.43,13.25,6.96,0,10.04-6.83,10.04-12.71Z"/>
    <path class="cls-1" d="M935.37,159.71c0-10.44,6.96-17.86,17.4-17.86s17.33,7.09,17.33,17.86c0,9.57-6.89,17.86-17.4,17.86s-17.33-7.96-17.33-17.86ZM963.41,159.71c0-6.76-4.08-12.78-10.7-12.78s-10.64,6.22-10.64,12.78,3.61,12.78,10.71,12.78,10.64-6.16,10.64-12.78Z"/>
    <path class="cls-1" d="M976.8,176.77v-50.18h6.29v50.18h-6.29Z"/>
    <path class="cls-1" d="M1043.3,175.9c-2.61,1.07-6.09,1.67-10.64,1.67-14.92,0-24.62-9.63-24.62-24.35s10.3-23.95,24.69-23.95c3.68,0,7.16.54,10.5,2.01l-.53,6.49c-2.95-1.74-6.22-2.61-9.64-2.61-10.64,0-17.93,7.69-17.93,18.27s7.63,18.27,17.6,18.27c3.61,0,7.89-.94,10.17-2.28l.4,6.49Z"/>
    <path class="cls-1" d="M1044.35,186c1,.33,2.01.53,2.94.53,4.08,0,6.62-4.22,7.49-8.36,0-.67-.67-2.21-.94-2.94l-11.84-32.59h6.89l9.17,28.24h.13l9.37-28.24h6.36l-13.51,37.47c-2.07,5.69-4.88,11.51-12.18,11.51-1.94,0-3.14-.27-4.28-.47l.4-5.15Z"/>
    <path class="cls-1" d="M1120.8,176.77v-20.47c0-5.75-1.94-9.37-6.09-9.37-6.02,0-8.97,5.62-8.97,12.71v17.13h-6.29v-20.47c0-5.55-1.81-9.37-6.09-9.37-5.95,0-8.96,5.55-8.96,12.65v17.2h-6.29v-34.12h5.89v4.95h.13c2.48-4.01,5.82-5.75,10.84-5.75,4.28,0,8.03,2.34,9.7,6.62,1.94-4.08,6.49-6.62,10.64-6.62,7.69,0,11.77,4.62,11.77,13.05v21.88h-6.29Z"/>
    <path class="cls-1" d="M1135.33,176.77v-34.12h5.89v5.29h.14c1.74-3.68,5.35-6.09,8.96-6.09,1.34,0,2.54.13,4.08.47v5.62c-1.14-.47-2.41-.6-3.48-.6-5.75,0-9.3,5.55-9.3,13.92v15.52h-6.29Z"/>
    <path class="cls-1" d="M1182.96,176.77v-5.42h-.13c-1.67,3.55-6.02,6.22-11.18,6.22-8.56,0-12.78-5.22-12.78-14.59v-20.34h6.29v18.4c0,10.5,4.62,11.44,7.49,11.44,6.29,0,10.11-5.08,10.11-13.98v-15.86h6.29v34.12h-6.09Z"/>
  </g>
  <g>
    <path class="cls-1" d="M783.81,275.09v-46.7h13.78c14.12,0,24.89,8.76,24.89,23.02,0,15.26-9.17,23.69-24.82,23.69h-13.85ZM797.66,269.2c10.17,0,17.73-4.48,17.73-17.6,0-10.64-7.16-17.33-17.13-17.33h-7.76v34.93h7.16Z"/>
    <path class="cls-1" d="M829.61,233.33v-7.09h7.09v7.09h-7.09ZM830.02,275.09v-34.12h6.29v34.12h-6.29Z"/>
    <path class="cls-1" d="M869.08,269.8h-.14c-2.67,3.48-6.96,5.29-11.44,5.29-9.77,0-14.58-7.96-14.58-16.8,0-9.3,5.35-18.13,15.26-18.13,5.35,0,9.17,1.74,11.24,5.89h.14v-5.09h5.82v32.72c0,10.44-5.55,16.26-17.6,16.26-4.35,0-7.43-.74-12.25-2.34l.67-5.82c5.15,2.41,8.1,3.08,12.24,3.08,6.69,0,10.64-4.48,10.64-11.71v-3.35ZM869.08,258.36c0-7.09-3.35-13.12-9.97-13.12-6.16,0-9.5,6.49-9.5,12.71,0,6.69,3.81,12.04,9.5,12.04s9.97-4.82,9.97-11.64Z"/>
    <path class="cls-1" d="M883.69,233.33v-7.09h7.09v7.09h-7.09ZM884.09,275.09v-34.12h6.29v34.12h-6.29Z"/>
    <path class="cls-1" d="M918.2,274.95c-1.67.47-3.41.94-5.42.94-7.02,0-10.44-3.68-10.44-9.83v-20.01h-7.69v-5.09h7.69v-7.9l6.29-2.01v9.9h9.03v5.09h-9.03v18.8c0,3.15,1.87,5.96,5.29,5.96,2.07,0,3.41-.67,4.28-1.21v5.35Z"/>
    <path class="cls-1" d="M944.79,275.09v-4.42h-.13c-2.41,3.35-6.16,5.22-10.64,5.22-7.89,0-12.44-3.74-12.44-10.64s6.89-11.24,16.33-11.24c2.67,0,4.82.07,6.22.14,0-6.22-2.48-8.9-8.43-8.9-3.41,0-7.16,1.21-9.9,3.48l-.34-5.35c3.15-1.87,6.89-3.21,11.24-3.21,9.43,0,13.72,4.48,13.72,14.05v14.99c0,2.08.07,4.28.27,5.89h-5.89ZM944.12,258.83s-2.81-.14-4.08-.14c-7.09,0-11.78,2.14-11.78,6.56,0,3.28,3.01,5.55,6.42,5.55,5.89,0,9.43-3.68,9.43-8.97v-3.01Z"/>
    <path class="cls-1" d="M958.95,275.09v-50.18h6.29v50.18h-6.29Z"/>
    <path class="cls-1" d="M1021.98,275.09v-21.28h-22.35v21.28h-6.69v-46.7h6.69v19.54h22.35v-19.54h6.69v46.7h-6.69Z"/>
    <path class="cls-1" d="M1064.47,273.68c-4.95,2.01-7.89,2.21-10.7,2.21-11.57,0-17.73-6.69-17.73-18.47,0-10.3,6.49-17.26,15.99-17.26s15.06,6.29,15.06,19.27h-24.35c.07,6.82,5.29,11.37,11.24,11.37,3.61,0,8.36-1.74,10.5-3.41v6.29ZM1060.39,254.74c-.07-5.49-3.21-9.5-8.56-9.5-5.02,0-8.43,3.61-9.1,9.5h17.66Z"/>
    <path class="cls-1" d="M1093.79,275.09v-4.42h-.14c-2.41,3.35-6.16,5.22-10.64,5.22-7.9,0-12.44-3.74-12.44-10.64s6.89-11.24,16.33-11.24c2.68,0,4.82.07,6.22.14,0-6.22-2.48-8.9-8.43-8.9-3.41,0-7.16,1.21-9.9,3.48l-.34-5.35c3.14-1.87,6.89-3.21,11.24-3.21,9.43,0,13.72,4.48,13.72,14.05v14.99c0,2.08.07,4.28.27,5.89h-5.89ZM1093.12,258.83s-2.81-.14-4.08-.14c-7.09,0-11.78,2.14-11.78,6.56,0,3.28,3.01,5.55,6.42,5.55,5.89,0,9.43-3.68,9.43-8.97v-3.01Z"/>
    <path class="cls-1" d="M1107.95,275.09v-50.18h6.29v50.18h-6.29Z"/>
    <path class="cls-1" d="M1142.06,274.95c-1.67.47-3.41.94-5.42.94-7.03,0-10.44-3.68-10.44-9.83v-20.01h-7.69v-5.09h7.69v-7.9l6.29-2.01v9.9h9.03v5.09h-9.03v18.8c0,3.15,1.87,5.96,5.29,5.96,2.08,0,3.41-.67,4.28-1.21v5.35Z"/>
    <path class="cls-1" d="M1170.61,275.09v-17.93c0-7.16-1.6-11.91-7.43-11.91-8.63,0-10.17,8.76-10.17,13.85v15.99h-6.29v-50.18h6.29v20.94h.13c2.34-3.68,6.22-5.69,10.98-5.69,8.63,0,12.78,5.29,12.78,14.65v20.27h-6.29Z"/>
    <path class="cls-1" d="M804.55,348.26v-4.42h-.14c-2.41,3.35-6.16,5.22-10.64,5.22-7.9,0-12.44-3.74-12.44-10.64s6.89-11.24,16.33-11.24c2.68,0,4.82.07,6.22.14,0-6.22-2.48-8.9-8.43-8.9-3.41,0-7.16,1.21-9.9,3.48l-.34-5.35c3.14-1.87,6.89-3.21,11.24-3.21,9.43,0,13.72,4.48,13.72,14.05v14.99c0,2.08.07,4.28.27,5.89h-5.89ZM803.88,332s-2.81-.14-4.08-.14c-7.09,0-11.78,2.14-11.78,6.56,0,3.28,3.01,5.55,6.42,5.55,5.89,0,9.43-3.68,9.43-8.97v-3.01Z"/>
    <path class="cls-1" d="M842.18,348.26v-18.47c0-8.97-3.28-11.37-7.49-11.37-6.56,0-10.1,5.42-10.1,13.98v15.86h-6.29v-34.12h6.09v5.42h.14c2.07-4.01,6.42-6.22,11.17-6.22,8.56,0,12.78,5.22,12.78,14.52v20.41h-6.29Z"/>
    <path class="cls-1" d="M881.21,348.26v-4.82h-.13c-2.34,3.48-6.62,5.62-11.64,5.62-10.11,0-14.65-8.83-14.65-18.47s4.82-17.26,14.72-17.26c5.08,0,9.03,1.74,11.31,5.49h.14v-20.74h6.29v50.18h-6.02ZM880.95,331.26c0-6.02-3.01-12.85-10.17-12.85-6.29,0-9.3,5.62-9.3,12.31,0,7.49,3.61,13.25,9.43,13.25,6.96,0,10.04-6.83,10.04-12.71Z"/>
    <path class="cls-1" d="M946.64,347.39c-2.61,1.07-6.09,1.67-10.64,1.67-14.92,0-24.62-9.63-24.62-24.35s10.3-23.95,24.69-23.95c3.68,0,7.16.53,10.5,2.01l-.53,6.49c-2.95-1.74-6.22-2.61-9.64-2.61-10.64,0-17.93,7.69-17.93,18.27s7.63,18.27,17.6,18.27c3.61,0,7.89-.94,10.17-2.28l.4,6.49Z"/>
    <path class="cls-1" d="M973.47,348.26v-4.42h-.13c-2.41,3.35-6.16,5.22-10.64,5.22-7.89,0-12.44-3.74-12.44-10.64s6.89-11.24,16.33-11.24c2.67,0,4.82.07,6.22.14,0-6.22-2.48-8.9-8.43-8.9-3.41,0-7.16,1.21-9.9,3.48l-.34-5.35c3.15-1.87,6.89-3.21,11.24-3.21,9.43,0,13.72,4.48,13.72,14.05v14.99c0,2.08.07,4.28.27,5.89h-5.89ZM972.8,332s-2.81-.14-4.08-.14c-7.09,0-11.78,2.14-11.78,6.56,0,3.28,3.01,5.55,6.42,5.55,5.89,0,9.43-3.68,9.43-8.97v-3.01Z"/>
    <path class="cls-1" d="M987.22,348.26v-34.12h5.89v5.29h.14c1.74-3.68,5.35-6.09,8.96-6.09,1.34,0,2.54.14,4.08.47v5.62c-1.14-.47-2.41-.6-3.48-.6-5.75,0-9.3,5.55-9.3,13.92v15.52h-6.29Z"/>
    <path class="cls-1" d="M1036.67,346.85c-4.95,2.01-7.9,2.21-10.71,2.21-11.57,0-17.73-6.69-17.73-18.47,0-10.3,6.49-17.26,15.99-17.26s15.05,6.29,15.05,19.27h-24.35c.07,6.82,5.29,11.37,11.24,11.37,3.61,0,8.36-1.74,10.5-3.41v6.29ZM1032.59,327.92c-.07-5.49-3.21-9.5-8.56-9.5-5.02,0-8.43,3.61-9.1,9.5h17.66Z"/>
    <path class="cls-1" d="M1101.37,348.26l-10.17-40.82h-.13l-10.24,40.82h-8.97l-14.12-46.7h7.36l11.18,40.01h.13l9.97-40.01h9.5l10.1,40.01h.14l11.17-40.01h7.09l-14.39,46.7h-8.63Z"/>
    <path class="cls-1" d="M1146.5,348.26v-4.42h-.14c-2.41,3.35-6.16,5.22-10.64,5.22-7.9,0-12.44-3.74-12.44-10.64s6.89-11.24,16.33-11.24c2.68,0,4.82.07,6.22.14,0-6.22-2.48-8.9-8.43-8.9-3.41,0-7.16,1.21-9.9,3.48l-.34-5.35c3.14-1.87,6.89-3.21,11.24-3.21,9.43,0,13.72,4.48,13.72,14.05v14.99c0,2.08.07,4.28.27,5.89h-5.89ZM1145.83,332s-2.81-.14-4.08-.14c-7.09,0-11.78,2.14-11.78,6.56,0,3.28,3.01,5.55,6.42,5.55,5.89,0,9.43-3.68,9.43-8.97v-3.01Z"/>
    <path class="cls-1" d="M1160.66,348.26v-50.18h6.29v50.18h-6.29Z"/>
    <path class="cls-1" d="M1202.2,346.85c-4.95,2.01-7.89,2.21-10.7,2.21-11.57,0-17.73-6.69-17.73-18.47,0-10.3,6.49-17.26,15.99-17.26s15.06,6.29,15.06,19.27h-24.35c.07,6.82,5.29,11.37,11.24,11.37,3.61,0,8.36-1.74,10.5-3.41v6.29ZM1198.12,327.92c-.07-5.49-3.21-9.5-8.56-9.5-5.02,0-8.43,3.61-9.1,9.5h17.66Z"/>
    <path class="cls-1" d="M1209.06,341.57c2.14,1.41,5.69,2.41,7.83,2.41,3.35,0,6.42-1.47,6.42-4.89,0-1.87-1.21-3.55-6.16-5.75-7.03-3.14-8.63-6.09-8.63-9.57,0-7.09,5.42-10.44,12.04-10.44,2.94,0,5.35.6,7.83,1.34l-.53,5.49c-1.27-.8-5.02-1.74-6.62-1.74-3.41,0-6.02,1.47-6.02,4.15,0,2.81,2.34,4.22,6.62,6.09,5.82,2.54,8.16,5.22,8.16,9.77,0,6.49-4.82,10.64-11.98,10.64-3.61,0-6.69-.47-9.3-1.87l.34-5.62Z"/>
  </g>
</svg>